<svg width="10" height="18" viewBox="0 0 10 18" fill="none" xmlns="http://www.w3.org/2000/svg">
<path d="M7.93328 0.666626H1.39995C1.08758 0.666626 0.788007 0.790713 0.567131 1.01159C0.346255 1.23247 0.222168 1.53204 0.222168 1.8444V17.3333H2.99995V15.6666H6.33328V17.3333H9.11106V1.8444C9.11106 1.53204 8.98697 1.23247 8.76609 1.01159C8.54522 0.790713 8.24565 0.666626 7.93328 0.666626ZM2.99995 12.8888H1.88883V11.7777H2.99995V12.8888ZM2.99995 10.1111H1.88883V8.99996H2.99995V10.1111ZM2.99995 7.33329H1.88883V6.22218H2.99995V7.33329ZM2.99995 4.55552H1.88883V3.4444H2.99995V4.55552ZM5.22217 12.8888H4.11106V11.7777H5.22217V12.8888ZM5.22217 10.1111H4.11106V8.99996H5.22217V10.1111ZM5.22217 7.33329H4.11106V6.22218H5.22217V7.33329ZM5.22217 4.55552H4.11106V3.4444H5.22217V4.55552ZM7.44439 12.8888H6.33328V11.7777H7.44439V12.8888ZM7.44439 10.1111H6.33328V8.99996H7.44439V10.1111ZM7.44439 7.33329H6.33328V6.22218H7.44439V7.33329ZM7.44439 4.55552H6.33328V3.4444H7.44439V4.55552Z" fill="#696871"/>
</svg>
